<svg width="91" height="76" viewBox="0 0 91 76" fill="none" xmlns="http://www.w3.org/2000/svg">
<circle cx="68" cy="29.5" r="22.5" fill="#53C1FF"/>
<path d="M13.8977 58.1924C13.9718 58.5046 14.1082 58.7986 14.2988 59.0567C14.4894 59.3148 14.7303 59.5317 15.0069 59.6943C15.2835 59.8568 15.5902 59.9618 15.9084 60.0028C16.2266 60.0438 16.5498 60.02 16.8586 59.9328C31.0164 56.0237 45.9685 56.0223 60.127 59.9287C60.4357 60.0158 60.7588 60.0395 61.0769 59.9985C61.395 59.9576 61.7015 59.8527 61.978 59.6902C62.2545 59.5277 62.4954 59.3109 62.686 59.053C62.8766 58.795 63.0131 58.5012 63.0872 58.1892L70.6542 26.0326C70.7555 25.6021 70.7346 25.1519 70.5938 24.7326C70.453 24.3134 70.198 23.9418 69.8575 23.6596C69.5169 23.3775 69.1043 23.1961 68.6662 23.1358C68.2281 23.0754 67.7819 23.1386 67.3777 23.3183L52.3607 29.9925C51.8184 30.2335 51.2056 30.2628 50.6428 30.0746C50.0801 29.8864 49.6082 29.4943 49.32 28.9756L40.5763 13.237C40.3706 12.8667 40.0696 12.5582 39.7046 12.3434C39.3396 12.1286 38.9237 12.0154 38.5002 12.0154C38.0766 12.0154 37.6608 12.1286 37.2957 12.3434C36.9307 12.5582 36.6297 12.8667 36.424 13.237L27.6804 28.9756C27.3922 29.4943 26.9203 29.8864 26.3575 30.0746C25.7948 30.2628 25.1819 30.2335 24.6397 29.9925L9.62034 23.3173C9.21629 23.1377 8.77013 23.0745 8.3321 23.1347C7.89406 23.195 7.48155 23.3763 7.141 23.6583C6.80044 23.9403 6.54537 24.3118 6.40451 24.7309C6.26365 25.15 6.24258 25.6002 6.34368 26.0306L13.8977 58.1924Z" stroke="black" stroke-width="2" stroke-linecap="round" stroke-linejoin="round"/>
<path d="M29 47.9984C35.3159 47.3339 41.6841 47.3339 48 47.9984" stroke="black" stroke-width="2" stroke-linecap="round" stroke-linejoin="round"/>
</svg>
