<svg width="68" height="78" viewBox="0 0 68 78" fill="none" xmlns="http://www.w3.org/2000/svg">
<circle cx="42" cy="22.5" r="22.5" fill="#FFBA53"/>
<path d="M42.8984 53.3984C47.8129 53.3984 51.7969 49.4145 51.7969 44.5C51.7969 39.5855 47.8129 35.6016 42.8984 35.6016C37.984 35.6016 34 39.5855 34 44.5C34 49.4145 37.984 53.3984 42.8984 53.3984Z" stroke="black" stroke-width="2" stroke-linecap="round" stroke-linejoin="round"/>
<path d="M34 35.6016V17.8049H25.1016C22.7416 17.8049 20.4782 18.7424 18.8094 20.4112C17.1406 22.08 16.2031 24.3434 16.2031 26.7034C16.2031 29.0634 17.1406 31.3267 18.8094 32.9955C20.4782 34.6643 22.7416 35.6018 25.1016 35.6018L34 35.6016Z" stroke="black" stroke-width="2" stroke-linecap="round" stroke-linejoin="round"/>
<path d="M34 53.3982V35.6016H25.1016C22.7416 35.6016 20.4782 36.5391 18.8094 38.2079C17.1406 39.8766 16.2031 42.14 16.2031 44.5C16.2031 46.86 17.1406 49.1234 18.8094 50.7921C20.4782 52.4609 22.7416 53.3984 25.1016 53.3984L34 53.3982Z" stroke="black" stroke-width="2" stroke-linecap="round" stroke-linejoin="round"/>
<path d="M34 35.6016V17.8049H42.8984C45.2584 17.8049 47.5218 18.7424 49.1906 20.4112C50.8594 22.08 51.7969 24.3434 51.7969 26.7034C51.7969 29.0634 50.8594 31.3267 49.1906 32.9955C47.5218 34.6643 45.2584 35.6018 42.8984 35.6018L34 35.6016Z" stroke="black" stroke-width="2" stroke-linecap="round" stroke-linejoin="round"/>
<path d="M34 53.3982V62.2967C34 64.0567 33.4782 65.7771 32.5004 67.2405C31.5226 68.7038 30.1329 69.8444 28.5069 70.5179C26.881 71.1914 25.0918 71.3677 23.3656 71.0243C21.6395 70.681 20.0539 69.8335 18.8095 68.5891C17.565 67.3446 16.7175 65.759 16.3741 64.0329C16.0308 62.3068 16.207 60.5176 16.8805 58.8916C17.554 57.2656 18.6945 55.8759 20.1578 54.8981C21.6212 53.9203 23.3416 53.3984 25.1016 53.3984L34 53.3982Z" stroke="black" stroke-width="2" stroke-linecap="round" stroke-linejoin="round"/>
</svg>
