<svg width="84" height="78" viewBox="0 0 84 78" fill="none" xmlns="http://www.w3.org/2000/svg">
<circle cx="61" cy="22.5" r="22.5" fill="#FF5353"/>
<path d="M38.5 40V11.5" stroke="black" stroke-width="2" stroke-linecap="round" stroke-linejoin="round"/>
<path d="M63.1818 25.75L13.8184 54.25" stroke="black" stroke-width="2" stroke-linecap="round" stroke-linejoin="round"/>
<path d="M10.4753 45.2103C9.2413 38.5324 10.4285 31.6334 13.8237 25.7521C17.2189 19.8709 22.5996 15.3927 28.9996 13.1218V34.5153L10.4753 45.2103Z" stroke="black" stroke-width="2" stroke-linecap="round" stroke-linejoin="round"/>
<path d="M38.5001 11.5C43.4934 11.5009 48.3988 12.8137 52.7251 15.3068C57.0513 17.8 60.6467 21.386 63.151 25.7058C65.6554 30.0256 66.9809 34.9276 66.9948 39.9208C67.0086 44.9141 65.7104 49.8233 63.2301 54.157C60.7498 58.4906 57.1744 62.0966 52.862 64.6137C48.5497 67.1309 43.6516 68.4709 38.6585 68.4995C33.6653 68.5282 28.7522 67.2445 24.4113 64.777C20.0703 62.3096 16.4537 58.7449 13.9238 54.44" stroke="black" stroke-width="2" stroke-linecap="round" stroke-linejoin="round"/>
</svg>
