<svg width="20" height="17" viewBox="0 0 20 17" fill="none" xmlns="http://www.w3.org/2000/svg">
<path d="M19.0425 6.40648C18.9596 6.15855 18.7999 5.94022 18.5842 5.78011C18.3686 5.62 18.1071 5.52559 17.834 5.50926L12.9174 5.18657L11.0964 0.818518C10.997 0.578003 10.8239 0.371406 10.5996 0.225473C10.3753 0.0795413 10.1101 0.000993936 9.83828 0C9.56649 0.000993936 9.30128 0.0795413 9.07697 0.225473C8.85266 0.371406 8.67958 0.578003 8.58015 0.818518L6.72606 5.21018L1.84253 5.50926C1.5698 5.52665 1.30883 5.62145 1.09339 5.78141C0.877946 5.94137 0.717937 6.15911 0.634062 6.40648C0.54793 6.65764 0.542898 6.92758 0.619614 7.18149C0.69633 7.43539 0.851276 7.66163 1.06448 7.83102L4.82231 10.8532L3.70489 15.0324C3.62758 15.3151 3.6415 15.6134 3.74482 15.8885C3.84815 16.1636 4.03612 16.4028 4.2843 16.575C4.52519 16.7394 4.81219 16.8317 5.10857 16.8401C5.40495 16.8485 5.69723 16.7727 5.94801 16.6222L9.83 14.2847H9.84656L14.0265 16.7954C14.2409 16.9279 14.4909 16.9989 14.7466 17C14.9554 16.9984 15.1611 16.9514 15.3477 16.8624C15.5344 16.7735 15.6972 16.645 15.8235 16.4869C15.9498 16.3288 16.0363 16.1453 16.0763 15.9505C16.1163 15.7556 16.1089 15.5546 16.0544 15.363L14.8708 10.7903L18.6121 7.83102C18.8253 7.66163 18.9802 7.43539 19.0569 7.18149C19.1337 6.92758 19.1286 6.65764 19.0425 6.40648Z" fill="#FFC14B"/>
</svg>
