<svg width="91" height="76" viewBox="0 0 91 76" fill="none" xmlns="http://www.w3.org/2000/svg">
<circle cx="68" cy="29.5" r="22.5" fill="#53C1FF"/>
<path d="M13.8977 58.1925C13.9718 58.5047 14.1082 58.7987 14.2988 59.0568C14.4894 59.3149 14.7303 59.5318 15.0069 59.6944C15.2835 59.857 15.5902 59.9619 15.9084 60.0029C16.2266 60.0439 16.5498 60.0201 16.8586 59.9329C31.0164 56.0239 45.9685 56.0225 60.127 59.9288C60.4357 60.0159 60.7588 60.0397 61.0769 59.9987C61.395 59.9577 61.7015 59.8528 61.978 59.6903C62.2545 59.5278 62.4954 59.3111 62.686 59.0531C62.8766 58.7952 63.0131 58.5013 63.0872 58.1893L70.6542 26.0327C70.7555 25.6022 70.7346 25.152 70.5938 24.7328C70.453 24.3135 70.198 23.9419 69.8575 23.6598C69.5169 23.3776 69.1043 23.1962 68.6662 23.1359C68.2281 23.0756 67.7819 23.1388 67.3777 23.3184L52.3607 29.9926C51.8184 30.2336 51.2056 30.2629 50.6428 30.0747C50.0801 29.8865 49.6082 29.4945 49.32 28.9757L40.5763 13.2371C40.3706 12.8669 40.0696 12.5584 39.7046 12.3436C39.3396 12.1288 38.9237 12.0155 38.5002 12.0155C38.0766 12.0155 37.6608 12.1288 37.2957 12.3436C36.9307 12.5584 36.6297 12.8669 36.424 13.2371L27.6804 28.9757C27.3922 29.4945 26.9203 29.8865 26.3575 30.0747C25.7948 30.2629 25.1819 30.2336 24.6397 29.9926L9.62034 23.3174C9.21629 23.1378 8.77013 23.0746 8.3321 23.1348C7.89406 23.1951 7.48155 23.3764 7.141 23.6584C6.80044 23.9404 6.54537 24.3119 6.40451 24.731C6.26365 25.1502 6.24258 25.6003 6.34368 26.0307L13.8977 58.1925Z" stroke="black" stroke-width="2" stroke-linecap="round" stroke-linejoin="round"/>
<path d="M29 47.9984C35.3159 47.3339 41.6841 47.3339 48 47.9984" stroke="black" stroke-width="2" stroke-linecap="round" stroke-linejoin="round"/>
</svg>
